<svg width="563" height="869" viewBox="0 0 563 869" fill="none" xmlns="http://www.w3.org/2000/svg">
<g clip-path="url(#clip0_179_16275)">
<path d="M321.324 226.114C321.323 225.121 321.525 224.137 321.916 223.219C322.308 222.301 322.883 221.467 323.607 220.765C324.331 220.063 325.191 219.505 326.138 219.125C327.084 218.745 328.098 218.55 329.122 218.55H359.889C360.914 218.549 361.93 218.743 362.878 219.123C363.825 219.502 364.686 220.059 365.412 220.761C366.138 221.464 366.713 222.298 367.106 223.217C367.499 224.135 367.701 225.12 367.701 226.114V228.183H438.471V123.784H247.234V228.183H321.324V226.114Z" fill="#3F3D56"/>
<path d="M500.005 123.785H448.403V228.183H492.219L500.005 123.785Z" fill="#3F3D56"/>
<path d="M438.468 0V114.141H376.292C344.033 114.136 312.945 102.417 289.151 81.2907C265.357 60.1649 250.582 31.164 247.736 0H438.468Z" fill="#3F3D56"/>
<path d="M507.687 20.9409L500.721 114.141H448.4V0H487.622C490.388 0.00137407 493.123 0.555523 495.659 1.62787C498.194 2.70021 500.474 4.26774 502.357 6.23265C504.239 8.19757 505.684 10.5177 506.601 13.0483C507.519 15.5789 507.888 18.2656 507.687 20.9409Z" fill="#3F3D56"/>
<path d="M489.805 260.311L481.463 412.49L481.4 413.591L478.712 462.657C478.293 473.824 473.424 484.399 465.13 492.155C456.836 499.912 445.763 504.246 434.241 504.245H253.112C245.687 504.254 238.379 502.453 231.86 499.007C231.747 498.946 231.633 498.885 231.532 498.836C230.46 498.26 229.425 497.636 228.415 496.988C228.163 496.816 227.91 496.657 227.658 496.486C221.999 492.665 217.335 487.619 214.034 481.747C210.734 475.876 208.887 469.34 208.64 462.657L197.548 260.311H489.805Z" fill="#3F3D56"/>
<path d="M181.04 39.0434L186.647 114.14H237.29V0H218.306C218.138 0 217.97 0.000733817 217.801 0.00219433C212.696 0.0774427 207.66 1.16486 203.004 3.19757C198.347 5.23029 194.169 8.16532 190.726 11.8222C187.283 15.479 184.647 19.7803 182.981 24.4617C181.316 29.143 180.655 34.1053 181.04 39.0434Z" fill="#3F3D56"/>
<path d="M195.153 228.183H237.29V123.785H187.367L195.153 228.183Z" fill="#3F3D56"/>
<path d="M438.165 11.0151H438.468V111.375H438.165C424.443 111.375 411.283 106.088 401.579 96.6773C391.876 87.2668 386.425 74.5034 386.425 61.1949C386.425 47.8864 391.876 35.123 401.579 25.7124C411.283 16.3019 424.443 11.0151 438.165 11.0151Z" fill="#6C63FF"/>
<path d="M489.906 61.1948C489.902 72.7808 485.768 84.0092 478.203 92.9764C470.638 101.944 460.109 108.098 448.4 110.395V11.9941C460.109 14.2919 470.638 20.446 478.203 29.4132C485.768 38.3803 489.902 49.6088 489.906 61.1948Z" fill="#6C63FF"/>
<path opacity="0.3" d="M233.604 268.771C240.764 269.098 255.572 272.546 271.618 277.004C287.655 281.466 305.05 286.91 322.223 292.295C352.286 301.714 382.346 311.13 412.406 320.543C416.538 321.835 420.682 323.138 424.838 324.453C426.428 326.472 428.012 328.51 429.564 330.569C425.912 329.317 422.245 328.105 418.589 326.951C402.967 322.027 389.412 318.78 374.252 314.301C350.92 307.414 326.307 298.369 302.435 289.946C278.565 281.517 251.179 272.443 233.604 268.771Z" fill="#F0F0F0"/>
<path d="M338.579 61.7135C340.574 61.7135 342.192 60.1445 342.192 58.2089C342.192 56.2734 340.574 54.7043 338.579 54.7043C336.583 54.7043 334.965 56.2734 334.965 58.2089C334.965 60.1445 336.583 61.7135 338.579 61.7135Z" fill="white"/>
<path d="M467.298 157.177C469.294 157.177 470.912 155.608 470.912 153.673C470.912 151.737 469.294 150.168 467.298 150.168C465.303 150.168 463.685 151.737 463.685 153.673C463.685 155.608 465.303 157.177 467.298 157.177Z" fill="white"/>
<path d="M356.246 480.349C357.58 480.349 358.662 479.299 358.662 478.005C358.662 476.711 357.58 475.662 356.246 475.662C354.912 475.662 353.83 476.711 353.83 478.005C353.83 479.299 354.912 480.349 356.246 480.349Z" fill="white"/>
<path d="M438.273 304.107C439.608 304.107 440.689 303.058 440.689 301.764C440.689 300.47 439.608 299.421 438.273 299.421C436.939 299.421 435.857 300.47 435.857 301.764C435.857 303.058 436.939 304.107 438.273 304.107Z" fill="white"/>
<path d="M299.458 170.703C300.792 170.703 301.874 169.654 301.874 168.359C301.874 167.065 300.792 166.016 299.458 166.016C298.123 166.016 297.042 167.065 297.042 168.359C297.042 169.654 298.123 170.703 299.458 170.703Z" fill="white"/>
<path d="M264.123 362.854C265.457 362.854 266.539 361.805 266.539 360.511C266.539 359.217 265.457 358.168 264.123 358.168C262.789 358.168 261.707 359.217 261.707 360.511C261.707 361.805 262.789 362.854 264.123 362.854Z" fill="white"/>
<path d="M377.883 388.669C377.037 388.132 376.162 387.59 375.265 387.074C371.079 384.669 366.426 382.795 361.879 384.079C357.113 385.423 354.068 389.822 351.501 393.942C337.602 416.241 325.548 439.574 315.452 463.721C331.46 450.773 335.591 428.235 349.86 413.495C352.274 411.006 355.344 408.618 358.863 408.771C361.7 408.891 364.136 410.624 366.637 411.921C373.226 415.345 380.942 415.911 388.399 416.409C398.72 417.101 409.042 417.792 419.365 418.482L419.38 418.323C412.066 412.465 404.579 406.832 396.918 401.425C390.679 397.016 384.334 392.764 377.883 388.669Z" fill="#F2F2F2"/>
<path d="M449.46 443.675C438.745 429.852 426.512 417.2 412.977 405.942C411.892 405.036 410.794 404.143 409.683 403.249C407.311 401.352 404.909 399.496 402.477 397.681C397.329 393.862 392.045 390.248 386.627 386.837C383.371 384.793 380.069 382.823 376.721 380.926C375.875 380.448 375.03 379.971 374.172 379.506C372.039 378.343 369.906 377.18 367.723 376.103C365.637 374.917 363.296 374.213 360.883 374.047C352.592 373.925 348.289 383.031 345.336 389.162C344.415 391.096 343.477 393.022 342.522 394.939C338.938 402.221 335.211 409.434 331.341 416.578C328.956 420.996 326.52 425.386 324.034 429.747C320.5 435.927 316.87 442.047 313.143 448.105C308.676 455.375 304.07 462.559 299.325 469.658C291.16 481.86 283.045 493.047 274.338 504.245H275.65C285.355 491.578 294.571 478.597 303.3 465.301C310.872 453.772 318.073 442.027 324.905 430.065C328.148 424.374 331.307 418.638 334.382 412.857C336.754 408.365 339.081 403.857 341.361 399.333C342.017 398.036 342.648 396.738 343.279 395.429C344.768 392.357 346.219 389.272 347.784 386.249C349.563 382.81 351.721 379.188 355.002 376.874C356.489 375.777 358.265 375.111 360.126 374.953C362.752 374.973 365.322 375.689 367.559 377.021C370.525 378.527 373.461 380.093 376.367 381.721C385.212 386.716 393.719 392.256 401.834 398.305C406.2 401.56 410.445 404.946 414.567 408.463C428.913 420.676 441.734 434.478 452.766 449.586C453.107 450.051 453.902 449.611 453.561 449.133C452.224 447.297 450.857 445.478 449.46 443.675Z" fill="#F2F2F2"/>
<path d="M474.56 407.276C469.841 403.873 464.953 400.708 459.896 397.778C457.372 396.31 454.823 394.915 452.224 393.568C451.441 393.164 450.646 392.773 449.851 392.393C448.034 391.499 446.143 390.754 444.198 390.166C441.448 389.302 438.538 389.023 435.667 389.346C432.893 389.736 430.221 390.633 427.792 391.989C422.631 394.792 418.63 399.112 414.744 403.335C414.663 403.421 414.619 403.533 414.621 403.65C414.624 403.766 414.672 403.876 414.756 403.959C414.794 404.005 414.842 404.042 414.897 404.068C414.951 404.093 415.011 404.106 415.072 404.106C415.132 404.106 415.192 404.093 415.247 404.068C415.301 404.042 415.349 404.005 415.387 403.959C415.879 403.445 416.346 402.919 416.838 402.405C420.662 398.293 424.763 394.241 430.026 391.892C432.529 390.729 435.264 390.115 438.039 390.092C440.9 390.164 443.721 390.758 446.356 391.843C447.605 392.332 448.829 392.883 450.04 393.47C451.416 394.143 452.779 394.866 454.117 395.588C456.653 396.946 459.152 398.362 461.613 399.835C466.522 402.772 471.271 405.938 475.86 409.332C477.741 410.715 479.583 412.123 481.4 413.591L481.463 412.49C479.205 410.691 476.903 408.953 474.56 407.276Z" fill="#F2F2F2"/>
<path d="M251.635 468.385C257.011 461.85 262.433 455.347 267.902 448.876C269.214 447.31 270.539 445.731 271.877 444.177C272.95 442.881 274.123 441.666 275.385 440.542C276.619 439.415 278.074 438.541 279.663 437.971C281.443 437.433 283.346 437.408 285.14 437.898C287.193 438.476 289.215 439.154 291.198 439.93L297.343 442.108L309.698 446.49C309.775 446.525 309.863 446.533 309.945 446.513C310.028 446.493 310.101 446.446 310.152 446.38C310.2 446.32 310.233 446.251 310.248 446.177C310.263 446.103 310.26 446.026 310.24 445.954C310.219 445.881 310.181 445.814 310.128 445.758C310.076 445.703 310.01 445.66 309.938 445.633L306.833 444.519L294.39 440.113C292.321 439.379 290.264 438.632 288.194 437.91C286.297 437.135 284.27 436.704 282.212 436.637C278.704 436.699 275.777 438.779 273.429 441.129C272.155 442.414 270.994 443.797 269.833 445.18C268.457 446.808 267.069 448.448 265.693 450.088C260.166 456.648 254.677 463.245 249.225 469.878C243.773 476.512 238.355 483.166 232.971 489.84C231.191 492.055 229.42 494.271 227.658 496.486C227.91 496.657 228.163 496.816 228.415 496.988C230.788 494.001 233.177 491.023 235.583 488.053C240.896 481.469 246.247 474.913 251.635 468.385Z" fill="#F2F2F2"/>
<path d="M431.649 397.053C427.063 399.339 423.583 403.301 419.134 405.83C429.847 402.755 440.737 400.29 451.747 398.447C448.826 396.507 445.425 395.355 441.893 395.11C438.361 394.865 434.825 395.536 431.649 397.053Z" fill="#F2F2F2"/>
<path d="M451.747 398.447C452.184 398.743 452.609 399.056 453.018 399.39L451.809 398.437L451.747 398.447Z" fill="#F2F2F2"/>
<path d="M280.197 443.008C278.435 443.764 276.927 444.985 275.845 446.532C260.75 464.352 245.656 482.172 230.561 499.991C251.493 484.609 268.962 465.24 281.896 443.073L280.197 443.008Z" fill="#F2F2F2"/>
<path d="M126.021 485.406C126.026 485.437 126.032 485.458 126.037 485.49C126.076 485.71 126.114 485.909 126.158 486.129V486.14C128.033 496.185 130.093 506.061 132.338 515.771L556.38 514.89C558.657 504.982 560.746 494.891 562.648 484.619C562.655 484.595 562.658 484.571 562.659 484.546L126.021 485.406Z" fill="#E6E6E6"/>
<path d="M147.65 375.104L177.156 374.245C185.125 391.244 175.37 428.014 175.37 428.014L164.4 503.656C166.138 505.101 167.452 506.965 168.211 509.06C168.97 511.155 169.147 513.407 168.723 515.589C168.3 517.771 167.291 519.806 165.798 521.49C164.306 523.174 162.382 524.446 160.221 525.18C158.061 525.914 155.739 526.082 153.489 525.669C151.24 525.255 149.142 524.275 147.408 522.825C145.674 521.376 144.364 519.509 143.61 517.412C142.856 515.315 142.685 513.063 143.114 510.882L135.764 427.913L147.65 375.104Z" fill="#FFB8B8"/>
<path d="M146.373 381.655L152.56 340.324L168.976 325.02C172.211 322.028 176.243 319.972 180.619 319.085C184.995 318.198 189.539 318.516 193.738 320.003C199.416 322.055 204.079 326.122 206.784 331.381C209.489 336.64 210.033 342.699 208.308 348.333C203.061 365.414 194.168 386.419 181.602 389.485L181.474 389.516L146.373 381.655Z" fill="#6C63FF"/>
<path d="M271.139 849.311H287.237L294.895 789.09L271.136 789.091L271.139 849.311Z" fill="#FFB6B6"/>
<path d="M267.038 844.211V864.442H318.943V863.806C318.942 858.609 316.813 853.626 313.024 849.951C309.235 846.277 304.097 844.212 298.739 844.211L289.249 837.235L288.756 837.431L271.569 844.211H267.038Z" fill="#2F2E41"/>
<path d="M161.348 849.311H177.447L185.104 789.09L161.345 789.091L161.348 849.311Z" fill="#FFB6B6"/>
<path d="M157.248 844.211V864.442H209.152V863.806C209.151 858.609 207.022 853.626 203.233 849.951C199.445 846.277 194.306 844.212 188.948 844.211L179.458 837.235L178.966 837.431L161.778 844.211H157.248Z" fill="#2F2E41"/>
<path d="M281.919 479.492L170.859 473.186C170.859 473.186 147.915 515.26 155.487 545.858C163.058 576.455 165.688 637.55 161.218 642.496C156.749 647.441 155.487 638.874 160.534 648.665C165.639 658.566 164.32 646.217 164.32 654.785C164.105 660.419 162.378 665.902 159.312 670.693V818.693L198.312 816.261C198.312 816.261 208.847 811.27 199.834 802.789C190.821 794.309 185.051 800.978 190.46 790.3C195.869 779.622 198.393 791.861 195.869 779.622C193.345 767.383 225.092 583.646 225.092 583.646C225.092 583.646 237.268 621.62 242.562 656.008C251.677 715.217 256.531 785.447 260.165 789.118C265.908 794.921 269.694 787.577 265.908 794.921C262.122 802.264 253.646 800.693 259.146 805.15C264.646 809.607 264.646 803.488 264.646 809.607C264.689 813.507 265.26 817.385 266.343 821.141L298.546 819.044L296.826 659.68L281.919 479.492Z" fill="#2F2E41"/>
<path d="M250.326 290.548L214.714 286.438L205.595 305.001C205.595 305.001 155.635 331.155 157.454 337.535C159.272 343.915 173.154 370.841 169.368 378.184C165.582 385.527 155.725 387.97 163.177 394.704C170.63 401.438 175.678 403.886 173.154 410.005C170.63 416.125 171.892 438.155 171.892 438.155C171.892 438.155 157.238 464.245 162.041 469.558C166.844 474.872 170.63 469.659 166.844 477.161C163.058 484.663 133.934 493.254 161.747 493.854C189.559 494.454 195.869 477.32 217.322 490.782C238.776 504.245 281.225 491.65 281.225 491.65C281.225 491.65 283.69 477.32 282.686 468.752C281.682 460.185 279.334 464.439 281.139 450.073C282.944 435.707 285.9 401.658 285.9 401.658C285.9 401.658 302.291 331.16 298.088 324.332C293.884 317.505 256.9 308.47 256.9 308.47L250.326 290.548Z" fill="#6C63FF"/>
<path d="M274.758 394L300.26 379.582C315.632 390.828 325.164 427.652 325.164 427.652L352.766 499.194C355.005 499.66 357.077 500.689 358.776 502.178C360.474 503.667 361.738 505.564 362.44 507.677C363.142 509.79 363.257 512.046 362.775 514.216C362.293 516.387 361.229 518.396 359.692 520.041C358.154 521.686 356.197 522.91 354.017 523.588C351.837 524.267 349.511 524.376 347.274 523.906C345.036 523.435 342.966 522.402 341.272 520.908C339.577 519.415 338.318 517.516 337.621 515.401L290.314 445.904L274.758 394Z" fill="#FFB8B8"/>
<path d="M276.861 400.348L261.948 361.167L268.838 340.119C270.206 335.991 272.738 332.317 276.146 329.512C279.554 326.707 283.703 324.882 288.124 324.243C300.573 322.529 301.672 326.763 304.282 338.693C308.081 356.131 309.642 365.225 311.67 390.913L311.573 390.999L276.861 400.348Z" fill="#6C63FF"/>
<path d="M236.065 279.697C254.626 279.697 269.673 265.104 269.673 247.103C269.673 229.101 254.626 214.508 236.065 214.508C217.503 214.508 202.457 229.101 202.457 247.103C202.457 265.104 217.503 279.697 236.065 279.697Z" fill="#FFB8B8"/>
<path d="M228.725 278.778C238.162 276.826 238.575 274.244 248.012 272.292C251.017 271.671 254.51 270.649 255.496 267.827C256.199 265.817 255.295 263.597 254.029 261.866C252.613 260.249 251.292 258.556 250.074 256.795C249.276 255.386 248.844 253.809 248.814 252.202C248.785 250.595 249.16 249.005 249.907 247.57C250.653 246.134 251.749 244.897 253.099 243.964C254.449 243.032 256.013 242.432 257.656 242.217C260.567 241.836 263.523 242.682 266.449 242.422C270.461 242.065 276.859 227.895 274.409 224.794C272.023 221.775 267.996 219.885 266.752 216.278C265.938 213.919 266.524 211.333 266.213 208.863C265.752 205.202 257.788 215.022 258.929 211.504C261.727 202.873 219.81 200.06 215.033 211.093C213.248 215.216 208.803 215.729 205.293 218.629C202.992 220.529 197.431 226.674 196.534 230.057C195.769 233.483 195.763 237.028 196.517 240.457C199.421 256.507 204.667 270.823 219.76 277.985" fill="#2F2E41"/>
<path d="M76.5921 859.334C67.4788 860.113 58.3013 858.908 49.7297 855.807C41.1582 852.706 33.4091 847.787 27.0485 841.41C18.7315 832.905 13.024 821.959 7.50436 811.373C5.89764 808.293 4.23681 805.107 2.54714 802.054C0.663377 798.726 -0.149612 794.926 0.212894 791.146C0.575399 787.365 2.09681 783.776 4.58111 780.842C6.96184 777.908 10.1938 775.733 13.8607 774.597C17.5275 773.461 21.4612 773.415 25.1548 774.467L25.9603 774.692L33.2091 802.125C34.2906 798.033 36.6118 788.814 38.0776 779.781L38.2007 779.025L38.9226 779.337C46.4916 782.585 53.6087 786.744 60.1061 791.717C71.6163 800.671 80.9778 811.948 87.5401 824.766C94.1024 837.583 97.7081 851.632 98.1065 865.938L98.1256 866.791L76.5921 859.334Z" fill="#F2F2F2"/>
<path d="M561.497 868.624L1.50258 869C1.10407 869 0.721906 868.846 0.440115 868.573C0.158323 868.3 0 867.929 0 867.543C0 867.156 0.158323 866.785 0.440115 866.512C0.721906 866.239 1.10407 866.085 1.50258 866.085L561.497 865.709C561.896 865.709 562.278 865.863 562.56 866.136C562.842 866.409 563 866.78 563 867.166C563 867.553 562.842 867.924 562.56 868.197C562.278 868.47 561.896 868.624 561.497 868.624Z" fill="#CACACA"/>
</g>
<defs>
<clipPath id="clip0_179_16275">
<rect width="563" height="869" fill="white"/>
</clipPath>
</defs>
</svg>
