<svg width="38" height="35" viewBox="0 0 38 35" fill="none" xmlns="http://www.w3.org/2000/svg">
<path fill-rule="evenodd" clip-rule="evenodd" d="M18.819 0C8.42725 0 0 7.89713 0 17.6374C0 25.4287 5.39231 32.0405 12.8714 34.373C13.8125 34.534 14.156 33.9894 14.156 33.522C14.156 33.1031 14.1395 31.9942 14.1301 30.5215C8.89544 31.5863 7.78968 28.1581 7.78968 28.1581C6.93331 26.121 5.70051 25.5786 5.70051 25.5786C3.99248 24.4851 5.82991 24.5071 5.82991 24.5071C7.7191 24.6328 8.71193 26.3238 8.71193 26.3238C10.3917 29.0201 13.1161 28.2418 14.1889 27.7899C14.3607 26.6501 14.8453 25.8718 15.3841 25.4331C11.2058 24.9878 6.81097 23.4753 6.81097 16.7158C6.81097 14.7911 7.545 13.217 8.74722 11.9824C8.55665 11.537 7.90967 9.74244 8.93543 7.3151C8.93543 7.3151 10.5164 6.8411 14.1113 9.12293C15.6123 8.73271 17.2215 8.53649 18.8213 8.52988C20.4188 8.53649 22.0304 8.73271 23.5337 9.12293C27.1263 6.8411 28.7049 7.3151 28.7049 7.3151C29.7307 9.74244 29.086 11.537 28.8931 11.9824C30.1 13.2148 30.827 14.7889 30.827 16.7158C30.827 23.4908 26.4275 24.9833 22.2327 25.4199C22.9079 25.9644 23.5102 27.0403 23.5102 28.685C23.5102 31.0418 23.4867 32.9444 23.4867 33.5242C23.4867 33.996 23.8255 34.545 24.7806 34.373C32.2551 32.0339 37.6427 25.4287 37.6427 17.6374C37.6427 7.89713 29.2154 0 18.819 0Z" fill="black"/>
</svg>
