<svg width="34" height="34" viewBox="0 0 34 34" fill="none" xmlns="http://www.w3.org/2000/svg">
<path d="M33.6693 13.6706H32.3V13.6H17V20.4H26.6076C25.2059 24.3584 21.4396 27.2 17 27.2C11.3671 27.2 6.8 22.6329 6.8 17C6.8 11.3671 11.3671 6.8 17 6.8C19.6002 6.8 21.9657 7.7809 23.7669 9.38315L28.5753 4.5747C25.5391 1.74505 21.4778 0 17 0C7.61175 0 0 7.61175 0 17C0 26.3883 7.61175 34 17 34C26.3883 34 34 26.3883 34 17C34 15.8602 33.8827 14.7475 33.6693 13.6706Z" fill="#FFC107"/>
<path d="M1.96021 9.08735L7.54555 13.1835C9.05685 9.4418 12.717 6.8 17.0001 6.8C19.6003 6.8 21.9658 7.7809 23.767 9.38315L28.5754 4.5747C25.5392 1.74505 21.4779 0 17.0001 0C10.4704 0 4.8077 3.68645 1.96021 9.08735Z" fill="#FF3D00"/>
<path d="M17 33.9999C21.3911 33.9999 25.381 32.3194 28.3976 29.5867L23.1361 25.1344C21.4293 26.4272 19.3077 27.1999 17 27.1999C12.5783 27.1999 8.82382 24.3805 7.40942 20.4458L1.86572 24.717C4.67922 30.2225 10.3929 33.9999 17 33.9999Z" fill="#4CAF50"/>
<path d="M33.6693 13.6705H32.3V13.6H17V20.4H26.6076C25.9344 22.3014 24.7112 23.9411 23.1336 25.1353C23.1344 25.1345 23.1353 25.1345 23.1361 25.1336L28.3977 29.5859C28.0254 29.9242 34 25.5 34 17C34 15.8601 33.8827 14.7475 33.6693 13.6705Z" fill="#1976D2"/>
</svg>
